<?xml version="1.0" standalone="no"?>
<!DOCTYPE svg PUBLIC "-//W3C//DTD SVG 20010904//EN"
 "http://www.w3.org/TR/2001/REC-SVG-20010904/DTD/svg10.dtd">
<svg version="1.0" xmlns="http://www.w3.org/2000/svg"
 width="256.000000pt" height="256.000000pt" viewBox="0 0 256.000000 256.000000"
 preserveAspectRatio="xMidYMid meet">

<g transform="translate(0.000000,256.000000) scale(0.100000,-0.100000)"
fill="#000000" stroke="none">
<path d="M0 1280 l0 -1280 1280 0 1280 0 0 1280 0 1280 -1280 0 -1280 0 0
-1280z m947 1027 c76 -31 210 -117 281 -181 l52 -48 57 52 c74 68 157 123 250
168 102 48 207 56 278 22 119 -57 168 -252 131 -509 -10 -63 -18 -119 -19
-124 -1 -4 39 -23 88 -41 189 -68 337 -172 384 -270 48 -98 17 -203 -90 -300
-65 -59 -212 -140 -309 -171 -30 -10 -59 -21 -63 -25 -5 -4 -1 -47 8 -95 23
-123 17 -317 -12 -397 -43 -118 -110 -168 -221 -168 -111 0 -245 60 -376 167
-32 26 -68 56 -81 66 -22 19 -23 19 -102 -46 -158 -127 -288 -187 -408 -187
-115 0 -187 58 -226 180 -24 74 -29 243 -10 345 5 33 13 76 16 95 l6 35 -95
34 c-115 41 -223 103 -293 166 -58 51 -113 149 -113 200 0 142 154 283 405
370 44 16 84 32 89 36 5 4 1 48 -8 98 -29 155 -21 332 18 424 20 49 66 98 111
119 55 26 167 20 252 -15z"/>
<path d="M1722 2238 c-86 -15 -214 -88 -319 -182 l-52 -47 61 -72 c33 -40 78
-97 100 -128 l40 -57 74 -7 c41 -4 113 -15 160 -24 47 -10 87 -14 89 -10 17
27 37 206 32 289 -7 116 -19 160 -58 204 -32 37 -62 45 -127 34z"/>
<path d="M722 2225 c-60 -44 -89 -179 -72 -335 11 -98 24 -168 34 -177 3 -3
63 4 133 16 70 11 140 21 155 21 21 0 37 13 74 63 26 34 74 92 106 129 l58 66
-47 42 c-166 146 -369 227 -441 175z"/>
<path d="M1206 1853 c-36 -43 -66 -80 -66 -83 0 -3 63 -5 139 -5 121 0 138 2
131 15 -16 28 -122 150 -130 150 -5 0 -38 -35 -74 -77z"/>
<path d="M1112 1663 l-53 -4 -56 -87 c-31 -47 -80 -132 -110 -189 l-55 -103
57 -107 c31 -60 81 -144 110 -189 l53 -81 53 -6 c70 -9 249 -9 328 -1 l61 7
55 86 c30 47 78 131 107 188 l53 103 -47 92 c-27 51 -75 136 -108 189 l-59 96
-77 7 c-77 6 -212 6 -312 -1z m251 -187 c128 -54 166 -228 74 -333 -122 -139
-352 -65 -365 117 -7 100 33 175 113 211 48 22 133 24 178 5z"/>
<path d="M786 1624 c-38 -7 -70 -15 -73 -17 -4 -4 63 -197 72 -205 2 -2 14 16
26 40 12 23 41 75 65 115 24 39 44 74 44 77 0 10 -60 5 -134 -10z"/>
<path d="M1636 1628 c4 -7 19 -31 32 -53 14 -22 42 -71 63 -109 43 -79 39 -81
87 56 l31 86 -87 16 c-107 20 -136 20 -126 4z"/>
<path d="M532 1560 c-195 -70 -334 -175 -349 -264 -7 -47 32 -113 100 -168 80
-63 318 -172 331 -150 2 4 14 39 26 77 13 39 38 105 56 147 l33 77 -44 106
c-24 59 -49 127 -56 151 -15 50 -20 51 -97 24z"/>
<path d="M1940 1568 c0 -6 -25 -74 -56 -151 l-55 -139 39 -91 c22 -51 48 -114
57 -142 10 -27 22 -54 26 -59 10 -12 112 25 212 77 140 72 223 169 209 242 -8
44 -113 144 -197 187 -66 34 -205 88 -226 88 -5 0 -9 -5 -9 -12z"/>
<path d="M747 1060 c-20 -55 -37 -104 -37 -109 0 -8 209 -46 215 -39 2 3 -130
236 -138 244 -2 2 -20 -41 -40 -96z"/>
<path d="M1760 1152 c0 -4 -29 -59 -65 -122 -36 -62 -64 -115 -62 -116 4 -5
206 32 213 38 8 8 -67 208 -78 208 -5 0 -8 -4 -8 -8z"/>
<path d="M676 833 c-30 -102 -39 -305 -17 -391 8 -34 25 -66 47 -89 33 -35 35
-35 101 -31 101 5 236 75 362 186 l45 39 -65 74 c-35 41 -81 98 -102 127 -22
28 -48 54 -60 56 -12 2 -76 11 -142 20 -66 9 -130 19 -142 22 -15 4 -23 1 -27
-13z"/>
<path d="M1740 830 c-52 -10 -114 -19 -137 -19 -44 -1 -37 7 -227 -238 -18
-24 -18 -24 10 -54 95 -100 276 -200 365 -202 111 -2 151 65 157 263 2 76 -2
153 -10 195 -16 83 -13 82 -158 55z"/>
<path d="M1140 790 c0 -3 32 -43 71 -89 l71 -83 24 28 c40 48 114 142 114 146
0 2 -63 3 -140 3 -77 0 -140 -2 -140 -5z"/>
</g>
</svg>
